<svg version="1.2" xmlns="http://www.w3.org/2000/svg" viewBox="0 0 1280 490" width="1280" height="490">
	<style>
		.s0 { transform: rotateX(180deg) translateX(-464px); transform-origin: 0; } 
		.s1 { transform: rotateX(180deg) rotateY(180deg) translateX(-1746px); transform-origin: 0; } 
	</style>
  <clipPath id="myClip" shape-rendering="geometricPrecision">
    <rect width="1450" height="505" x="-5" y="-5" shape-rendering="geometricPrecision" stroke-width="0"/>
  </clipPath>
  <path id="wave1" stroke-width="0" shape-rendering="geometricPrecision" clip-path="url(#myClip)" class="s0" d="m0 343l80-49c80-49 240-147 400-130.7 160 16.7 320 146.7 480 187.9 160 40.8 320-8.2 480-73.5 160-65.7 320-146.7 480-155.2 160-8.5 320 57.5 480 49 160-8.5 320-89.5 480-73.5 160 16 320 131 480 171.5 160 40.5 320 8.5 480 0 160-8.5 320 8.5 480-16.3 160-24.2 320-90.2 480-89.9 160-0.3 320 65.7 480 89.9 160 24.8 320 7.8 480 8.1 160-0.3 320 16.7 480 8.2 160-8.5 320-40.5 480-81.7 160-40.8 320-89.8 480-89.8 160 0 320 49 480 65.3 160 16.7 320-0.3 480 32.7 160 33 320 114 480 155.2 160 40.8 320 40.8 480 49 160 7.8 320 24.8 480 16.3 160-8.5 320-40.5 480-81.7 160-40.8 320-89.8 480-138.8 160-49 320-98 480-73.5 160 24.5 320 122.5 400 171.5l80 49v147h-80c-80 0-240 0-400 0q-240 0-480 0-240 0-480 0-240 0-480 0-240 0-480 0-240 0-480 0-240 0-480 0-240 0-480 0-240 0-480 0-240 0-480 0-240 0-480 0-240 0-480 0-240 0-480 0-240 0-480 0-240 0-480 0-240 0-480 0-240 0-480 0-240 0-480 0-240 0-480 0-240 0-480 0-240 0-480 0-240 0-480 0-240 0-480 0c-160 0-320 0-400 0h-80z"/>
	<path class="s1" stroke-width="0" shape-rendering="geometricPrecision" clip-path="url(#myClip)" d="m0 343l80-49c80-49 240-147 400-130.7 160 16.7 320 146.7 480 187.9 160 40.8 320-8.2 480-73.5 160-65.7 320-146.7 480-155.2 160-8.5 320 57.5 480 49 160-8.5 320-89.5 480-73.5 160 16 320 131 480 171.5 160 40.5 320 8.5 480 0 160-8.5 320 8.5 480-16.3 160-24.2 320-90.2 480-89.9 160-0.3 320 65.7 480 89.9 160 24.8 320 7.8 480 8.1 160-0.3 320 16.7 480 8.2 160-8.5 320-40.5 480-81.7 160-40.8 320-89.8 480-89.8 160 0 320 49 480 65.3 160 16.7 320-0.3 480 32.7 160 33 320 114 480 155.2 160 40.8 320 40.8 480 49 160 7.8 320 24.8 480 16.3 160-8.5 320-40.5 480-81.7 160-40.8 320-89.8 480-138.8 160-49 320-98 480-73.5 160 24.5 320 122.5 400 171.5l80 49v147h-80c-80 0-240 0-400 0q-240 0-480 0-240 0-480 0-240 0-480 0-240 0-480 0-240 0-480 0-240 0-480 0-240 0-480 0-240 0-480 0-240 0-480 0-240 0-480 0-240 0-480 0-240 0-480 0-240 0-480 0-240 0-480 0-240 0-480 0-240 0-480 0-240 0-480 0-240 0-480 0-240 0-480 0-240 0-480 0-240 0-480 0-240 0-480 0c-160 0-320 0-400 0h-80z"/>
</svg>